<svg xmlns="http://www.w3.org/2000/svg" xmlns:xlink="http://www.w3.org/1999/xlink" width="1818" height="1118" viewBox="0 0 1818 1118">
    <defs>
        <linearGradient id="kf2lldqxvc" x1="13.1%" x2="322.329%" y1="28.191%" y2="201.767%">
            <stop offset="0%" stop-color="#256FD6"/>
            <stop offset="100%" stop-color="#005A96"/>
        </linearGradient>
        <linearGradient id="h44f9v9upd" x1="22.102%" x2="140.134%" y1="40.295%" y2="111.06%">
            <stop offset="0%" stop-color="#0E2E5A"/>
            <stop offset="100%" stop-color="#005A96" stop-opacity="0"/>
        </linearGradient>
        <path id="pv5g40bcoa" d="M0 0H1816V1116H0z"/>
    </defs>
    <g fill="none" fill-rule="evenodd">
        <g transform="translate(1 1)">
            <mask id="p06neahnlb" fill="#fff">
                <use xlink:href="#pv5g40bcoa"/>
            </mask>
            <use fill="#051F35" stroke="#979797" xlink:href="#pv5g40bcoa"/>
            <g mask="url(#p06neahnlb)">
                <g>
                    <path fill="url(#kf2lldqxvc)" d="M1455.596 2629.22c-45.965 0-89.182-9.922-130.61-29.189-79.81-37.054-219.26-135.95-256.483-381.802-16.59-109.288-11.822-235.064 14.538-384.509 40.004-226.801 118.224-431.954 121.569-440.577l418.983 190.757c-68.186 178.67-113.853 398.904-111.568 514.83 103.09-51.955 295.626-223.265 590.06-591.104 257.642-321.91 491.076-623.108 493.295-626.175l355.764 307.477c-11.193 15.334-277.345 380.143-584.264 734.813-424.281 490.26-697.29 705.443-911.284 705.48" opacity=".567" transform="translate(-537.518 -818.4)"/>
                    <path fill="url(#h44f9v9upd)" d="M366.99 1779.295L0 1487.803c10.968-16.37 272.285-405.039 573.731-776.22C755.553 487.7 915.074 316.138 1047.853 201.762c88.442-76.19 357.546-307.935 591.128-144.917 138.346 96.563 288.158 307.682 216.118 765.293-34.86 221.468-111.505 421.59-111.505 421.59l-418.95-191.468s58.388-153.823 83.671-320.338c14.945-98.691 12.957-166.336 5.567-207.874-98.78 61.046-258.07 199.688-577.773 612.66-251.476 324.81-466.998 639.45-469.119 642.588" transform="translate(-537.518 -818.4)"/>
                </g>
            </g>
        </g>
    </g>
</svg>
