<svg id="Ebene_1" data-name="Ebene 1" xmlns="http://www.w3.org/2000/svg" viewBox="0 0 1120.16 186.24"><defs><style>.cls-1{fill:#ffffff;}.cls-2{fill:#ffffff;}</style></defs><path class="cls-1" d="M141.67,223.89a22.81,22.81,0,0,1-9-1.85c-5.52-2.35-15.16-8.63-17.74-24.24-1.14-6.94-.81-14.92,1-24.41a159.3,159.3,0,0,1,8.41-28l29,12.11c-4.71,11.34-7.87,25.32-7.71,32.68,7.13-3.3,20.44-14.18,40.81-37.52,17.82-20.44,34-39.56,34.12-39.75l24.6,19.51c-.77,1-19.18,24.13-40.41,46.65C175.35,210.23,156.47,223.89,141.67,223.89Z" transform="translate(-40.92 -57.06)"/><path class="cls-2" d="M66.29,170.08,40.92,151.56c.76-1,18.82-25.72,39.66-49.3C93.15,88,104.17,77.14,113.35,69.88c6.11-4.84,24.71-19.56,40.86-9.21,9.56,6.13,19.91,19.55,14.93,48.61a141,141,0,0,1-7.7,26.78l-29-12.16a105.41,105.41,0,0,0,5.78-20.35c1-6.27.9-10.56.39-13.2-6.83,3.88-17.84,12.68-39.94,38.91C81.33,149.89,66.44,169.88,66.29,170.08Z" transform="translate(-40.92 -57.06)"/><path class="cls-2" d="M1107.73,124.36a25.14,25.14,0,0,1,16.83,5.83,24.68,24.68,0,0,1,8.41,15.59H1082.3q1.53-9.94,8.41-15.68t17-5.74m53.35,30.79q0-16.07-7-28.21a47.43,47.43,0,0,0-19.22-18.64,61,61,0,0,0-55.35.28,50.31,50.31,0,0,0-19.7,18.93,52.62,52.62,0,0,0-7.17,27.25,51.86,51.86,0,0,0,7.27,27.35,49.65,49.65,0,0,0,20.65,18.83q13.38,6.8,30.78,6.79,27.93,0,42.46-16.63l-15.88-17.21a34.47,34.47,0,0,1-11.56,7.55,39.42,39.42,0,0,1-14.25,2.39q-11.67,0-19.51-5.54a24.28,24.28,0,0,1-9.94-15.11h77.83q.57-7.45.57-8M997.35,207.73q16.24,0,28.4-6.88a41.11,41.11,0,0,0,17.69-19.12l-23.14-12.62q-7.84,14.14-23.14,14.15-11.67,0-19.31-7.65t-7.65-20.85q0-13.19,7.65-20.84t19.31-7.65q15.11,0,23.14,14.15L1043.44,128a40.34,40.34,0,0,0-17.69-19.41q-12.15-6.78-28.4-6.78a63.3,63.3,0,0,0-29.54,6.78,50.78,50.78,0,0,0-20.46,18.84A51.37,51.37,0,0,0,940,154.76a51.38,51.38,0,0,0,7.37,27.35,50.69,50.69,0,0,0,20.46,18.83,63.19,63.19,0,0,0,29.54,6.79M872.71,187.65q-7.85,0-12.34-3.34a10.71,10.71,0,0,1-4.49-9.08q0-12.06,18.36-12H894.7v10.51a19.37,19.37,0,0,1-8.42,10.43,26,26,0,0,1-13.57,3.53M875,101.8a90.24,90.24,0,0,0-24.19,3.25,64.82,64.82,0,0,0-20.17,9.17l10.7,20.85a42.8,42.8,0,0,1,13.48-7A52,52,0,0,1,871,125.51q11.87,0,17.79,5.26t5.93,15H871q-22.56,0-33.36,8.22t-10.81,22.56a28.88,28.88,0,0,0,4.59,16.07,30.65,30.65,0,0,0,13.29,11.09q8.7,4,20.56,4,22.93,0,31.36-14.34V206.2h27.92V147.5q0-23-12.81-34.33T875,101.8M757.93,183.26q-11.48,0-18.84-7.75t-7.36-20.75q0-13,7.36-20.74t18.84-7.75q11.46,0,18.83,7.75t7.36,20.74q0,13-7.36,20.75t-18.83,7.75m5.16-81.46q-21.23,0-32.32,13.38V103.33H702.28v140h29.83v-48q11.28,12.44,31,12.43a52.5,52.5,0,0,0,26.1-6.59,47.35,47.35,0,0,0,18.45-18.55q6.69-12,6.7-27.83t-6.7-27.82a47.42,47.42,0,0,0-18.45-18.55,52.4,52.4,0,0,0-26.1-6.59M635.35,207.73q15.1,0,26.11-4.11t16.73-11.57a27.17,27.17,0,0,0,5.73-17q0-11.28-5.92-17.59a31.12,31.12,0,0,0-14-8.7,176.77,176.77,0,0,0-20.65-4.49q-11.29-1.73-16.45-3.64t-5.16-6.69c0-2.8,1.59-5.1,4.78-6.88s8-2.68,14.34-2.68A59.35,59.35,0,0,1,670.54,132l9.94-21.23a60.66,60.66,0,0,0-17.88-6.59,99.71,99.71,0,0,0-21.7-2.39q-14.73,0-25.53,4.2t-16.44,11.76a28.19,28.19,0,0,0-5.64,17.31q0,11.67,6,18a32.21,32.21,0,0,0,14.24,8.8,153.65,153.65,0,0,0,20.85,4.4q10.71,1.33,15.87,3.25t5.16,6.31q0,9.38-18.93,9.37a69.62,69.62,0,0,1-19.12-2.77,62.76,62.76,0,0,1-16.64-7.17L589.8,196.64c4.84,3.19,12.34,5.83,20.51,7.94a100,100,0,0,0,25,3.15M545.2,116.9V103.33H516.71V206.2h29.83V157.63q0-14.34,7.27-21.51T573.88,129q1.73,0,6.69.38V101.8a53.53,53.53,0,0,0-20.93,3.82A33.17,33.17,0,0,0,545.2,116.9M443.41,183.26q-11.48,0-18.93-7.75T417,154.76q0-13,7.46-20.74t18.93-7.75q11.47,0,18.84,7.75t7.36,20.74q0,13-7.36,20.75t-18.84,7.75m0,24.47a61.13,61.13,0,0,0,29.07-6.79,50.54,50.54,0,0,0,20.07-18.83,51.86,51.86,0,0,0,7.27-27.35,51.85,51.85,0,0,0-7.27-27.34,50.63,50.63,0,0,0-20.07-18.84,65.9,65.9,0,0,0-58.23,0,50.54,50.54,0,0,0-20.18,18.84,51.93,51.93,0,0,0-7.26,27.34,51.94,51.94,0,0,0,7.26,27.35,50.44,50.44,0,0,0,20.18,18.83,61.61,61.61,0,0,0,29.16,6.79M347,96.44q16.07,0,27.54,7.46l9.56-24.48a59.55,59.55,0,0,0-17.59-7,94.15,94.15,0,0,0-21.61-2.39q-29.07,0-45.22,14.34t-16.16,40.16V206.2h31V157.44H369.6V132.58H314.53v-8.22q0-14,8.22-20.94t24.28-7" transform="translate(-40.92 -57.06)"/></svg>
